PathFileType	4	(X/Y/Z)	s01c0103.trc
DataRate	CameraRate	NumFrames	NumMarkers	Units	OrigDataRate	OrigDataStartFrame	OrigNumFrames
200	200	5	48	mm	200	1000	2000
Frame#	Time	racr			lacr			c7			jug			rlel			rdr			llel			ldr			s2			lic			ric			lasi			rasi			rpsi			lpsi			rgt			lgt			rth1			rth2			rth3			rth4			rlfc			rsh1			rsh2			rsh3			rsh4			rlmal			rmmal			rcal			rtoe			rmt5			lth1			lth2			lth4			lth3			llfc			lsh1			lsh2			lsh3			lsh4			llmal			lmmal			lcal			ltoe			lmt5			SBIKE			LBIKE			RBIKE			
		X1	Y1	Z1	X2	Y2	Z2	X3	Y3	Z3	X4	Y4	Z4	X5	Y5	Z5	X6	Y6	Z6	X7	Y7	Z7	X8	Y8	Z8	X9	Y9	Z9	X10	Y10	Z10	X11	Y11	Z11	X12	Y12	Z12	X13	Y13	Z13	X14	Y14	Z14	X15	Y15	Z15	X16	Y16	Z16	X17	Y17	Z17	X18	Y18	Z18	X19	Y19	Z19	X20	Y20	Z20	X21	Y21	Z21	X22	Y22	Z22	X23	Y23	Z23	X24	Y24	Z24	X25	Y25	Z25	X26	Y26	Z26	X27	Y27	Z27	X28	Y28	Z28	X29	Y29	Z29	X30	Y30	Z30	X31	Y31	Z31	X32	Y32	Z32	X33	Y33	Z33	X34	Y34	Z34	X35	Y35	Z35	X36	Y36	Z36	X37	Y37	Z37	X38	Y38	Z38	X39	Y39	Z39	X40	Y40	Z40	X41	Y41	Z41	X42	Y42	Z42	X43	Y43	Z43	X44	Y44	Z44	X45	Y45	Z45	X46	Y46	Z46	X47	Y47	Z47	X48	Y48	Z48	
1000	5.0000	503.964172	1326.507568	-98.089951	513.326172	1293.108154	-404.866058	465.691437	1388.987671	-248.944183	457.424377	1223.962646	-243.045959	572.886353	1063.352905	4.215544	737.076538	858.507019	-56.993942	529.074402	1027.493408	-526.691956	715.805847	876.691956	-428.548645	0.000000	0.000000	-0.000000	92.267838	1187.060059	-408.794678	106.615471	1160.179688	-75.773567	101.056053	1133.517212	-381.700287	130.436325	1117.313232	-107.499321	-29.592117	1198.644287	-163.821838	-41.232098	1206.562744	-270.431152	54.820507	1037.749756	-49.460884	51.633869	1072.620972	-432.996643	120.772392	926.355225	-35.017773	171.241730	859.814087	-39.523205	220.201294	784.885986	-55.047062	216.977722	891.287903	-52.020256	262.029175	677.522949	-76.037437	237.878510	562.221252	-44.642540	236.079071	477.634247	-51.382904	225.935547	390.038422	-63.898781	285.370483	477.085480	-87.422791	203.342880	269.663055	-90.124458	242.527725	286.587250	-161.901047	159.643204	256.250336	-140.443497	420.259186	178.671432	-134.790405	313.569183	167.782806	-62.977718	151.459839	1005.380249	-444.541870	239.560837	995.547974	-454.720581	248.695831	1047.507080	-439.830017	322.845032	974.950012	-448.620026	421.580170	900.535645	-435.471924	326.089050	843.020569	-456.942932	268.204559	779.986267	-444.420166	209.354523	719.405945	-426.760834	312.477264	744.664673	-418.919342	126.267319	630.575623	-405.457947	158.062790	623.018738	-324.699219	68.622131	622.007629	-359.698456	279.150391	444.997955	-373.538666	181.891220	493.281799	-436.159637	-223.894455	893.588440	-251.052933	-12.646252	85.561745	-457.286377	-22.218578	80.593643	-57.091114	
1001	5.0050	504.885406	1325.882324	-98.358727	512.568970	1294.079224	-404.565338	466.033447	1389.153809	-248.064819	457.763214	1223.865845	-242.736450	576.033630	1063.820801	3.197514	738.035583	857.857666	-56.793159	527.369507	1028.616943	-525.630432	715.028198	878.292847	-428.690826	0.000000	0.000000	-0.000000	91.644127	1188.990845	-407.237854	107.151901	1159.842407	-74.876671	100.920853	1134.685913	-380.958740	130.606430	1116.448486	-106.214867	-29.363918	1198.451050	-161.615829	-41.310860	1207.079834	-267.973602	54.283894	1037.177734	-48.495380	51.205761	1075.060913	-432.029114	118.857506	925.796509	-33.578575	168.556534	858.474182	-37.407528	216.760452	782.883789	-52.600636	214.787750	889.484070	-49.839046	257.001160	675.093140	-73.870224	231.986481	560.284607	-42.743164	229.905380	475.701569	-49.547531	219.677811	388.162170	-62.186611	279.643951	474.921387	-84.966179	197.199509	268.139740	-88.837891	235.618286	284.054260	-160.786652	153.439133	256.315857	-139.055328	411.700836	171.205429	-135.271927	305.173492	163.246719	-62.808746	151.579895	1009.031677	-443.702362	239.852997	1000.407837	-453.424866	248.033447	1052.213745	-438.099426	323.402405	981.080444	-447.586365	423.831207	909.309265	-435.126740	329.465393	850.967896	-456.177582	272.367950	787.103394	-443.677643	214.337067	725.670959	-425.881439	317.235138	752.104919	-418.815491	132.714294	634.706421	-404.890289	164.881805	627.693542	-324.460968	74.874886	624.507507	-359.390259	289.010437	452.115295	-373.160004	190.824768	498.478912	-435.854828	-223.849319	893.684998	-250.732803	-12.618259	85.681679	-457.232910	-22.211506	80.660538	-57.055801	
1002	5.0100	505.717468	1325.464355	-98.421997	511.727020	1295.000732	-404.292633	466.343384	1389.302124	-247.325439	458.053284	1223.768799	-242.451920	578.746155	1064.006348	2.354016	738.562805	857.333435	-56.559753	525.889343	1029.726074	-524.593201	714.309631	879.611877	-428.780670	0.000000	0.000000	-0.000000	91.211067	1190.745850	-405.977570	107.448479	1159.782715	-74.063866	100.396851	1135.980103	-380.070496	130.625427	1115.912842	-104.911110	-29.289463	1198.394165	-159.728851	-41.499748	1207.778687	-265.816162	53.569107	1036.741577	-47.778751	50.827656	1077.502563	-431.240143	117.099403	925.405212	-32.300327	166.074402	857.570435	-35.398167	213.585861	781.385071	-49.835949	212.505005	888.054199	-47.958145	252.513870	673.307190	-71.842171	226.666153	558.936707	-41.044197	224.097504	474.439362	-47.812878	213.535080	386.818939	-60.657425	274.247986	473.338196	-82.572334	190.946045	267.297272	-87.060127	228.857376	282.223145	-159.686340	147.317551	257.257233	-137.646606	402.773529	164.213852	-135.679367	296.526550	159.279053	-62.550270	151.729263	1012.551697	-442.825195	240.149628	1005.166687	-452.044678	247.595612	1056.991577	-436.673584	323.993866	986.921387	-446.295685	425.727875	917.614868	-434.358887	332.568146	858.354370	-455.161224	276.444885	793.745178	-442.839355	219.440231	731.307678	-425.069885	321.962433	759.144226	-418.586700	139.509918	637.865295	-404.356323	170.424133	631.032776	-324.125580	81.094727	626.080872	-359.159668	299.247864	458.666931	-372.875000	200.274368	503.014038	-435.309448	-223.800644	893.701172	-250.562256	-12.611704	85.755096	-457.170593	-22.162586	80.652260	-56.993050	
1003	5.0150	506.332733	1325.177002	-98.205498	510.829529	1295.850098	-404.086853	466.604858	1389.413330	-246.735809	458.294250	1223.677856	-242.180695	580.879333	1063.973755	1.841743	738.911011	857.032715	-56.452919	523.719543	1030.674927	-523.823181	713.725891	880.815369	-428.822815	0.000000	0.000000	-0.000000	90.621056	1192.615234	-404.740570	107.621956	1159.910522	-73.377380	99.900864	1137.473755	-379.291260	130.582443	1115.635498	-103.715385	-29.296299	1198.439819	-158.270935	-41.782795	1208.671021	-263.977051	52.778019	1036.487549	-47.334702	50.558449	1079.877930	-430.740814	115.459305	925.250427	-31.181606	164.001602	856.994812	-33.506268	210.882050	780.373901	-46.863510	210.627350	887.084351	-45.952641	248.666656	672.161865	-69.993149	221.815796	558.266357	-39.490837	218.798126	473.747833	-46.256680	207.619125	386.334106	-59.092453	268.886749	472.162811	-80.525673	184.772888	267.192719	-85.601547	222.331039	281.125000	-158.608139	141.354828	259.020233	-136.089005	393.610901	157.690079	-136.197403	287.735321	155.895920	-62.402885	151.937714	1015.909302	-441.872314	240.394775	1009.582581	-450.636566	247.087631	1061.644653	-435.288147	324.438446	992.542053	-444.877075	426.721130	925.460571	-433.586273	335.443878	865.271912	-454.044006	280.440613	799.648499	-441.920044	224.591721	736.079163	-424.166199	326.564240	765.741882	-418.152496	146.163818	640.014465	-403.638916	179.366379	634.204163	-323.872162	87.237495	626.688965	-359.025665	309.575317	464.631622	-372.583221	209.626007	506.752930	-435.159363	-223.780014	893.686707	-250.517670	-12.600647	85.744652	-457.138458	-22.150593	80.641357	-56.976021	
1004	5.0200	506.895081	1324.939331	-97.787056	509.916260	1296.602783	-403.976227	466.809052	1389.476318	-246.308228	458.485870	1223.599487	-241.911087	582.139709	1063.784668	1.808071	739.070312	856.763306	-56.338242	521.423340	1031.272095	-523.336365	713.133850	881.834534	-428.810486	0.000000	0.000000	-0.000000	90.203728	1194.306885	-403.656525	107.788116	1160.126953	-72.718239	99.348335	1139.166382	-378.569458	130.481277	1115.686279	-102.633057	-29.385382	1198.665527	-157.146225	-42.139347	1209.760376	-262.460358	51.946793	1036.430786	-47.063969	50.284409	1082.096436	-430.498108	113.996796	925.287476	-30.339983	162.194748	856.767761	-31.862885	208.728394	779.824890	-44.067215	209.105515	886.551453	-44.096722	245.549454	671.518127	-68.441010	217.717102	558.252808	-38.278446	213.897827	473.769257	-44.909138	201.993393	386.321655	-57.712685	264.312225	471.671295	-78.639145	179.157684	267.596619	-83.803665	216.117737	280.781067	-157.580734	135.433105	261.172638	-134.554657	384.146729	151.841995	-136.703171	278.707886	153.267776	-62.283566	152.062698	1018.984863	-440.984070	240.663406	1013.736328	-449.381500	246.646027	1065.919678	-433.840790	324.756897	997.713928	-443.245117	428.502197	933.311707	-431.339569	338.202026	871.517944	-452.627594	284.246582	804.676453	-440.843353	230.200333	740.170471	-423.220215	331.126404	771.552551	-417.498962	153.482819	641.373535	-403.322113	185.204208	636.218811	-323.238770	93.259827	626.294373	-359.004364	319.814240	469.925476	-372.322662	218.961395	509.847839	-435.137024	-223.892090	893.606079	-250.623260	-12.622796	85.657814	-457.121429	-22.140230	80.627533	-56.951092	
